<?xml version="1.0" encoding="utf-8"?>
<!-- Generator: Adobe Illustrator 22.1.0, SVG Export Plug-In . SVG Version: 6.00 Build 0)  -->
<svg version="1.1" id="Layer_1" xmlns="http://www.w3.org/2000/svg" xmlns:xlink="http://www.w3.org/1999/xlink" x="0px" y="0px"
	 viewBox="0 0 14 17.5" style="enable-background:new 0 0 14 17.5;" xml:space="preserve">
<style type="text/css">
	.st0{fill:#00DD61;}
	.st1{enable-background:new    ;}
</style>
<path class="st0" d="M6.8,13.5l-1,0.4c-0.4,0.2-0.9,0.1-1.2-0.3l-0.6-0.9c-0.1-0.1-0.2-0.2-0.4-0.2l-1.1-0.1c-0.5,0-0.8-0.4-0.9-0.9
	l-0.1-1.1c0-0.1-0.1-0.3-0.2-0.4L0.4,9.4C0,9.1-0.1,8.6,0.1,8.2l0.4-1c0.1-0.1,0.1-0.3,0-0.4l-0.4-1C-0.1,5.4,0,4.9,0.4,4.6l0.9-0.6
	c0.1-0.1,0.2-0.2,0.2-0.4l0.1-1.1C1.7,2,2,1.7,2.5,1.6l1.1-0.1c0.1,0,0.3-0.1,0.4-0.2l0.6-0.9C4.9,0,5.4-0.1,5.8,0.1l1,0.4
	c0.1,0.1,0.3,0.1,0.4,0l1-0.4C8.6-0.1,9.1,0,9.4,0.4l0.6,0.9c0.1,0.1,0.2,0.2,0.4,0.2l1.1,0.1c0.5,0,0.8,0.4,0.9,0.9l0.1,1.1
	c0,0.1,0.1,0.3,0.2,0.4l0.9,0.6c0.4,0.3,0.5,0.8,0.3,1.2l-0.4,1c-0.1,0.1-0.1,0.3,0,0.4l0.4,1c0.2,0.4,0.1,0.9-0.3,1.2l-0.9,0.6
	c-0.1,0.1-0.2,0.2-0.2,0.4l-0.1,1.1c0,0.5-0.4,0.8-0.9,0.9l-1.1,0.1c-0.1,0-0.3,0.1-0.4,0.2l-0.6,0.9c-0.3,0.4-0.8,0.5-1.2,0.3
	l-1-0.4C7.1,13.4,6.9,13.4,6.8,13.5z M4.3,6.1L3.4,6.9l2.8,2.8l4.4-4.4L9.8,4.5L6.3,8.1L4.3,6.1z"/>
<text transform="matrix(1 0 0 1 0 29)" style="font-family:'HelveticaNeue-Bold'; font-size:5px;">Created by Jenya K.</text>
<text transform="matrix(1 0 0 1 0 34)" style="font-family:'HelveticaNeue-Bold'; font-size:5px;">from the Noun Project</text>
</svg>
